<mxfile host="app.diagrams.net" modified="2024-07-03T01:48:00.455Z" agent="Mozilla/5.0 (Windows NT 10.0; Win64; x64; rv:127.0) Gecko/20100101 Firefox/127.0" version="24.6.4" etag="amh52aN0r2Ff1yZ7KxvC" type="github">
  <diagram name="Page-1" id="DlhGQA2y3fduNJWzYTei">
    <mxGraphModel>
      <root>
        <mxCell id="0" />
        <mxCell id="1" parent="0" />
      </root>
    </mxGraphModel>
  </diagram>
</mxfile>
